HIERARCHY
ROOT Hips
{
	OFFSET	0.00	0.00	0.00
	CHANNELS 6 Xposition Yposition Zposition Zrotation Xrotation Yrotation
	JOINT LeftHip
	{
		OFFSET	 3.430000	 0.000000	 0.000000
		CHANNELS 3 Zrotation Xrotation Yrotation
		JOINT LeftKnee
		{
			OFFSET	 0.000000	-18.469999	 0.000000
			CHANNELS 3 Zrotation Xrotation Yrotation
			JOINT LeftAnkle
			{
				OFFSET	 0.000000	-17.950001	 0.000000
				CHANNELS 3 Zrotation Xrotation Yrotation
				End Site 
				{
					OFFSET	 0.000000	-3.119996	 0.000000
				}
			}
		}
	}
	JOINT RightHip
	{
		OFFSET	-3.430000	 0.000000	 0.000000
		CHANNELS 3 Zrotation Xrotation Yrotation
		JOINT RightKnee
		{
			OFFSET	 0.000000	-18.809999	 0.000000
			CHANNELS 3 Zrotation Xrotation Yrotation
			JOINT RightAnkle
			{
				OFFSET	 0.000000	-17.570000	 0.000000
				CHANNELS 3 Zrotation Xrotation Yrotation
				End Site 
				{
					OFFSET	 0.000000	-3.250000	 0.000000
				}
			}
		}
	}
	JOINT Chest
	{
		OFFSET	 0.000000	 4.570000	 0.000000
		CHANNELS 3 Zrotation Xrotation Yrotation
		JOINT LeftCollar
		{
			OFFSET	 1.060000	 15.330000	 1.760000
			CHANNELS 3 Zrotation Xrotation Yrotation
			JOINT LeftShoulder
			{
				OFFSET	 5.810000	 0.000000	 0.000000
				CHANNELS 3 Zrotation Xrotation Yrotation
				JOINT LeftElbow
				{
					OFFSET	 0.000000	-12.080000	 0.000000
					CHANNELS 3 Zrotation Xrotation Yrotation
					JOINT LeftWrist
					{
						OFFSET	 0.000000	-9.820000	 0.000000
						CHANNELS 3 Zrotation Xrotation Yrotation
						End Site 
						{
							OFFSET	 0.000000	-7.369996	 0.000000
						}
					}
				}
			}
		}
		JOINT RightCollar
		{
			OFFSET	-1.060000	 15.330000	 1.760000
			CHANNELS 3 Zrotation Xrotation Yrotation
			JOINT RightShoulder
			{
				OFFSET	-6.060000	 0.000000	 0.000000
				CHANNELS 3 Zrotation Xrotation Yrotation
				JOINT RightElbow
				{
					OFFSET	 0.000000	-11.900000	 0.000000
					CHANNELS 3 Zrotation Xrotation Yrotation
					JOINT RightWrist
					{
						OFFSET	 0.000000	-9.520000	 0.000000
						CHANNELS 3 Zrotation Xrotation Yrotation
						End Site 
						{
							OFFSET	 0.000000	-7.140012	 0.000000
						}
					}
				}
			}
		}
		JOINT Neck
		{
			OFFSET	 0.000000	 17.620001	 0.000000
			CHANNELS 3 Zrotation Xrotation Yrotation
			JOINT Head
			{
				OFFSET	 0.000000	 5.190000	 0.000000
				CHANNELS 3 Zrotation Xrotation Yrotation
				End Site 
				{
					OFFSET	 0.000000	 4.140008	 0.000000
				}
			}
		}
	}
}

MOTION
Frames: 18
Frame Time: 0.033333
-27.2361 0.3315 -37.9021 9.9323 5.58273 143.86 18.3589 -6.49138 1.47134 -0.830498 23.5167 1.56076 -9.44014 -4.86251 -3.85831 -4.7309 -11.3196 -18.4761 -1.60262 14.0525 2.67686 16.719 2.88739 17.412 -4.21331 40.3143 -5.01155 0 0 0 77.3321 -67.4076 106.928 -1.19045 -2.62397 10.4896 6.17641 -0.0618261 33.6834 0 0 0 -23.1466 -6.86236 -14.9509 5.54257 -5.35069 -0.0785422 -25.7733 -17.9336 7.71738 0 0 0 -8.61345 -19.1752 32.307 
-27.8814 0.4068 -38.1708 9.82491 5.17272 142.623 17.5987 -6.2666 3.16563 -0.649077 23.4967 1.31353 -8.68379 -5.06722 -3.77829 -5.62303 -12.4062 -17.9951 -1.69172 14.3298 2.59396 17.219 4.71844 17.9256 -5.92237 40.0096 -3.73521 0 0 0 70.6195 -68.5584 98.6864 -1.56546 -2.72678 9.25687 3.71708 -1.39594 29.0478 0 0 0 -23.1309 -5.50762 -18.8889 5.38797 -4.89153 -0.305312 -23.9465 -18.3047 10.191 0 0 0 -7.90254 -18.4236 27.4968 
-28.4716 0.5022 -38.3893 9.7599 4.67322 141.786 17.1745 -6.57279 4.31381 -0.627019 23.6169 1.18158 -8.01027 -5.0573 -3.60917 -6.1747 -13.3374 -17.8476 -1.68352 14.5786 2.45747 17.2646 6.48459 17.9963 -6.98221 39.7621 -2.74296 0 0 0 61.7628 -69.768 85.7328 -2.14379 -3.20104 7.139 3.63615 -3.41644 19.9466 0 0 0 -23.0278 -4.88872 -22.4127 5.20135 -4.35404 -0.490616 -22.0301 -18.1012 10.6623 0 0 0 -7.27449 -17.1419 20.3896 
-28.9989 0.6102 -38.5776 9.71987 4.1804 141.131 16.7439 -7.08302 4.95279 -0.535592 23.8421 1.33199 -7.47199 -5.00504 -3.45389 -6.51788 -14.0149 -17.9328 -1.70524 14.7072 2.42986 17.0302 8.15567 17.8446 -7.71996 39.6105 -1.86943 0 0 0 51.0925 -70.356 69.2363 -3.1659 -4.00366 5.3923 2.92669 -4.96067 12.1737 0 0 0 -22.9721 -4.70158 -25.8549 5.03668 -3.90202 -0.683585 -20.6469 -17.7466 9.58827 0 0 0 -6.39667 -15.3346 12.999 
-29.5112 0.7358 -38.7585 9.75388 3.67559 140.609 16.3236 -7.67933 5.14315 -0.433529 24.0311 1.58457 -6.99012 -4.85975 -3.09233 -6.67423 -14.5324 -18.1451 -1.75887 14.8956 2.38251 16.4322 9.68981 17.3403 -8.01313 39.6064 -1.14431 0 0 0 38.8432 -70.4543 50.1502 -4.18089 -4.78062 4.04429 2.41528 -6.00344 4.41798 0 0 0 -23.3378 -5.35913 -29.9466 4.87211 -3.59352 -0.933035 -20.0829 -17.3654 6.6721 0 0 0 -5.0004 -13.275 4.87939 
-30.0059 0.8312 -38.9242 9.84144 3.19164 140.232 15.8725 -8.21854 5.27401 -0.335639 24.1647 1.80216 -6.40622 -4.72089 -2.77322 -6.85759 -14.9587 -18.613 -1.70674 15.2032 2.45259 15.3004 11.0256 16.5194 -7.96822 39.6233 -0.57449 0 0 0 26.9521 -69.1806 31.4555 -5.13325 -4.9771 2.41391 1.66633 -6.35357 -3.08275 0 0 0 -24.2137 -6.72768 -34.0691 4.64588 -3.1515 -1.20793 -20.1024 -16.9505 2.47843 0 0 0 -3.25106 -11.1058 -3.14332 
-30.4554 0.9367 -39.0774 9.8638 2.77579 139.954 15.3022 -8.77529 5.3155 -0.142234 24.2266 1.99748 -5.85062 -4.52832 -2.4648 -7.0721 -15.337 -19.2887 -1.64143 15.5004 2.45152 14.205 12.0182 15.35 -7.53224 39.6625 -0.119639 0 0 0 16.6088 -66.0921 13.9456 -5.85043 -5.1626 1.33632 1.70747 -6.30532 -10.3866 0 0 0 -25.6585 -8.40997 -38.3252 4.44291 -2.98762 -1.46719 -20.9425 -16.2446 -3.21081 0 0 0 -1.14105 -9.11464 -10.7749 
-30.8772 1.007 -39.2331 9.95245 2.44144 139.782 14.756 -9.19062 5.42778 -0.0185573 24.2582 2.0763 -5.17731 -4.3569 -2.19866 -7.2538 -15.4983 -20 -1.60345 15.6053 2.39805 13.266 13.0227 14.0784 -6.74019 39.8459 0.22129 0 0 0 9.32272 -62.0353 0.314549 -6.56513 -4.79241 0.819465 2.02521 -6.52376 -17.6888 0 0 0 -27.8238 -10.5148 -43.1977 4.35504 -3.00768 -1.88159 -22.7856 -15.1761 -9.9098 0 0 0 0.820578 -7.53001 -17.8975 
-31.279 1.0798 -39.4013 9.96414 2.24676 139.623 14.1467 -9.55206 5.69735 0.162743 24.2929 1.94871 -4.55743 -4.18885 -1.96285 -7.43227 -15.5723 -20.6702 -1.61166 15.5367 2.2977 12.6368 13.8264 12.8505 -5.59399 40.1189 0.497055 0 0 0 4.21474 -57.2584 -10.3561 -6.98096 -4.63015 0.600058 1.02654 -6.50881 -25.1415 0 0 0 -30.8223 -12.8958 -48.7603 4.24606 -3.09317 -2.22354 -25.2283 -13.7942 -16.9363 0 0 0 2.59799 -6.5752 -24.1904 
-31.6306 1.1175 -39.5646 9.85372 2.18138 139.443 13.4396 -9.74309 6.11696 0.322719 24.3037 1.80545 -3.97579 -4.09679 -1.84271 -7.72681 -15.7143 -20.9386 -1.67375 15.3937 2.15183 12.0946 14.5043 11.4973 -4.39593 40.3434 0.939955 0 0 0 0.231202 -52.5609 -18.1875 -7.23322 -4.185 0.00661764 -0.428143 -7.00765 -30.7074 0 0 0 -34.4166 -15.1095 -54.3344 4.22192 -3.29484 -2.58868 -28.4202 -12.6771 -22.505 0 0 0 3.5441 -6.50601 -28.6049 
-32.0173 1.1351 -39.7554 9.58436 2.21423 139.238 12.4816 -9.85773 6.63611 0.397267 24.2536 1.56046 -3.27896 -4.04596 -1.63177 -8.3847 -16.2251 -20.8325 -1.64862 15.6426 1.78233 11.4798 15.0762 9.74481 -3.15148 40.5595 1.56103 0 0 0 -2.86417 -47.1303 -24.0545 -7.38733 -3.7302 -0.732151 -1.68377 -7.0038 -36.6535 0 0 0 -39.0805 -17.4293 -60.5362 4.15972 -3.33922 -2.79926 -32.0922 -11.6206 -27.035 0 0 0 4.24469 -6.79619 -32.9036 
-32.3387 1.1451 -39.9161 9.22289 2.3524 139.053 11.4504 -9.90941 7.13996 0.489903 24.1658 1.28591 -2.66511 -4.00686 -1.42959 -9.14471 -16.8462 -20.5292 -1.57297 16.0588 1.399 10.9096 15.4266 8.06302 -2.00389 40.751 2.19202 0 0 0 -5.06662 -42.43 -27.6266 -7.39418 -3.29202 -1.46902 -2.02861 -7.42908 -41.7015 0 0 0 -43.708 -19.0277 -66.0201 4.14043 -3.36471 -2.92745 -35.499 -10.8424 -29.7407 0 0 0 4.36201 -7.36118 -36.1066 
-32.635 1.1753 -40.0769 8.73978 2.58738 138.932 10.2741 -9.98395 7.54196 0.630657 23.9959 1.07458 -2.15776 -3.88206 -1.265 -9.94082 -17.5363 -19.9383 -1.48653 16.7698 0.855067 10.3098 15.3196 6.29213 -0.748186 40.9633 2.80265 0 0 0 -6.25969 -37.7919 -29.4318 -7.32602 -2.89622 -2.11911 -0.748817 -10.2293 -43.888 0 0 0 -48.6252 -20.1433 -71.5628 4.21429 -3.70232 -3.14697 -39.4738 -10.1533 -31.1968 0 0 0 4.17281 -8.13584 -38.9613 
-32.9037 1.1803 -40.2275 8.27628 2.85156 138.921 9.08712 -9.87218 8.0847 0.810525 23.6315 0.788964 -1.64622 -3.73256 -1.28893 -10.6255 -18.0863 -19.2066 -1.42702 17.8005 0.472732 9.3859 14.7359 4.78855 0.654546 41.1547 3.37231 0 0 0 -6.65386 -33.77 -28.9506 -7.60566 -2.94473 -2.69917 0.836802 -12.9476 -42.3404 0 0 0 -53.9511 -20.4519 -77.2175 4.38499 -4.17438 -3.08128 -43.8502 -9.47481 -31.878 0 0 0 3.59511 -8.91988 -41.6814 
-33.1021 1.2104 -40.3581 7.72037 3.21881 139.025 7.84612 -9.69194 8.46367 1.03962 23.1371 0.589844 -1.33611 -3.5511 -1.43035 -11.2747 -18.5675 -18.4574 -1.27493 19.2439 0.228254 8.2969 13.4076 3.4814 1.98472 41.2489 3.81368 0 0 0 -6.0403 -30.1858 -26.5915 -8.12487 -4.00213 -2.42381 2.63847 -14.7548 -40.1732 0 0 0 -58.9627 -19.9794 -82.1254 4.62992 -4.77416 -2.68924 -48.285 -9.15193 -32.1425 0 0 0 3.14636 -9.59604 -44.0327 
-33.2553 1.2154 -40.4811 7.22538 3.63872 139.308 6.63115 -9.35807 8.519 1.14901 22.5232 0.58968 -1.03912 -3.34369 -1.54303 -11.9076 -18.9594 -17.8378 -1.0857 20.9204 0.037256 6.98446 11.9498 2.72407 3.23352 41.2707 4.09145 0 0 0 -5.23966 -27.0494 -23.339 -8.88667 -4.95551 -2.21659 5.50066 -16.407 -35.8358 0 0 0 -63.4079 -18.881 -86.0309 5.01072 -5.64063 -2.2095 -52.4386 -9.12145 -31.3946 0 0 0 2.60837 -10.0472 -46.14 
-33.3256 1.2406 -40.6017 6.74987 4.16759 139.765 5.37804 -8.79208 8.47015 1.30337 21.7297 0.512735 -0.843607 -3.14539 -1.71458 -12.4674 -19.2411 -17.3474 -0.900255 22.6825 -0.0172329 5.85052 10.3444 2.40491 4.39865 41.2053 4.10851 0 0 0 -3.93139 -24.4101 -18.8692 -9.7633 -6.13356 -2.30671 8.05641 -17.2121 -30.9352 0 0 0 -67.0519 -17.4415 -88.9109 5.50712 -6.84408 -1.79167 -56.9029 -10.106 -28.3009 0 0 0 2.20874 -10.2904 -47.9405 
-33.3055 1.2581 -40.6996 6.42524 4.70517 140.44 4.38637 -8.05162 8.12644 1.39098 20.8881 0.560969 -0.771094 -2.96684 -1.97755 -12.5372 -19.2006 -16.7897 -0.770909 24.1112 -0.071213 5.02022 8.62165 2.84133 5.58453 41.0781 3.75819 0 0 0 -1.99166 -22.9051 -13.4452 -10.6823 -7.06722 -2.34855 10.3236 -18.012 -25.0252 0 0 0 -68.9745 -15.8057 -90.6181 6.19194 -8.17125 -1.22585 -61.106 -12.6434 -24.0319 0 0 0 1.97986 -10.3527 -49.2422 
